<svg width="40" height="40" viewBox="0 0 40 40" fill="none" xmlns="http://www.w3.org/2000/svg">
<path d="M20.2266 4.00151C11.0875 3.87807 3.62661 11.339 3.75005 20.4781C3.87192 29.2429 11.0086 36.3796 19.7735 36.5015C28.9141 36.6265 36.3735 29.1656 36.2485 20.0265C36.1282 11.2601 28.9915 4.12338 20.2266 4.00151ZM30.1032 29.5679C30.0721 29.6016 30.0339 29.628 29.9914 29.6452C29.949 29.6625 29.9032 29.6702 29.8575 29.6678C29.8117 29.6654 29.767 29.653 29.7266 29.6314C29.6861 29.6098 29.6509 29.5796 29.6235 29.5429C28.9247 28.6287 28.0689 27.8459 27.0961 27.2312C25.1071 25.9546 22.5868 25.2515 20 25.2515C17.4133 25.2515 14.893 25.9546 12.904 27.2312C11.9312 27.8456 11.0754 28.6281 10.3766 29.5421C10.3492 29.5788 10.314 29.6091 10.2735 29.6306C10.2331 29.6522 10.1884 29.6647 10.1426 29.667C10.0968 29.6694 10.0511 29.6617 10.0086 29.6445C9.96618 29.6272 9.92804 29.6008 9.89692 29.5671C7.60448 27.0924 6.3059 23.8588 6.25005 20.4859C6.1227 12.8835 12.361 6.52026 19.9665 6.50151C27.5719 6.48276 33.75 12.6585 33.75 20.2515C33.7527 23.7057 32.4501 27.0334 30.1032 29.5679Z" fill="#515151"/>
<path d="M20.0001 11.25C18.4595 11.25 17.0665 11.8273 16.0767 12.8766C15.0868 13.9258 14.5923 15.3766 14.704 16.9336C14.9306 20 17.3063 22.5 20.0001 22.5C22.6938 22.5 25.0649 20 25.2962 16.9344C25.4118 15.3922 24.9212 13.9547 23.9149 12.8859C22.9212 11.8313 21.5306 11.25 20.0001 11.25Z" fill="#515151"/>
</svg>
